<svg xmlns="http://www.w3.org/2000/svg" height="24" viewBox="0 -960 960 960" width="24"><path d="M160-288.462v76.153q0 4.616 3.846 8.463 3.847 3.846 8.463 3.846h615.382q4.616 0 8.463-3.846 3.846-3.847 3.846-8.463v-76.153H160Zm12.309-410.767h110.694q-5-9-7.462-19-2.462-10-2.462-21 0-41.923 29.038-70.961 29.038-29.038 70.961-29.038 25.153 0 46.534 13.071 21.38 13.071 37.311 32.467l22.308 29.846 22.308-29.846q15.307-20.154 37.064-32.846 21.758-12.692 46.862-12.692 41.841 0 70.879 29.038 29.038 29.038 29.038 70.961 0 11-2.269 21t-7.654 19h112.232q30.308 0 51.308 21 21 20.999 21 51.307v414.613q0 30.308-21 51.308t-51.308 21H172.309q-30.308 0-51.308-21t-21-51.308v-414.613q0-30.308 21-51.307 21-21 51.308-21ZM160-391.538h640v-235.384q0-4.616-3.846-8.462-3.847-3.847-8.463-3.847H569.075l81.692 111.692-47.845 34.461-123.691-167.845-123.692 167.845-47.845-34.461 80.462-111.692H172.309q-4.616 0-8.463 3.847-3.846 3.846-3.846 8.462v235.384Zm213.078-307.691q17 0 28.5-11.5t11.5-28.5q0-17-11.5-28.5t-28.5-11.5q-17 0-28.5 11.5t-11.5 28.5q0 17 11.5 28.5t28.5 11.5Zm212.306 0q17 0 28.5-11.5t11.5-28.5q0-17-11.5-28.5t-28.5-11.5q-17 0-28.5 11.5t-11.5 28.5q0 17 11.5 28.5t28.5 11.5Z"/></svg>