<svg xmlns="http://www.w3.org/2000/svg" height="24" viewBox="0 -960 960 960" width="24"><path d="M439.231-100.001q-24.923 0-42.461-17.538-17.538-17.539-17.538-42.461v-184.233H252.693q-30.307 0-51.499-20.999-21.193-21-21.193-50.923v-271.923q0-54.46 38.923-93.19 38.922-38.731 93.768-38.731h467.307v403.844q0 29.923-21.385 50.923-21.384 20.999-51.692 20.999H580.383V-160q0 24.922-17.538 42.461-17.538 17.538-42.46 17.538h-81.154ZM240-550.769h480V-760h-52.693v154.23h-59.999V-760h-56.924v79.231h-59.999V-760H312.692q-30.308 0-51.5 20.807Q240-718.385 240-688.078v137.309Zm12.693 146.538h454.229q5.385 0 9.232-3.462 3.846-3.462 3.846-8.462v-74.615H240v74.615q0 5 3.654 8.462 3.654 3.462 9.039 3.462Zm-12.693 0V-490.77v86.539Z"/></svg>