<svg xmlns="http://www.w3.org/2000/svg" height="24" viewBox="0 -960 960 960" width="24"><path d="m111.925-113.079 175.383-490.765L602.69-288.462 111.925-113.079ZM210.846-212l282-100-182-182-100 282Zm348.46-239.846-33.538-33.538 219.384-219.384q30.077-30.077 72.769-30.077 42.693 0 72.769 30.077l19.385 19.384-32.769 33.538-19.384-19.384q-16.308-16.308-39.616-16.308T778.69-671.23L559.306-451.846ZM413.153-597.999l-33.538-33.537 24-24q17.847-17.847 17.847-43.232 0-25.385-17.847-43.231l-25.23-25.231 33.537-33.538 25.231 25.231q32 32 32 76.769 0 44.769-32 76.769l-24 24Zm73.077 73.077-33.538-33.538 139.384-139.384q16.308-16.308 16.308-39.616t-16.308-39.616l-59.384-59.384 33.538-33.538 59.384 59.384q30.461 30.462 30.461 73.154 0 42.692-30.461 73.154L486.23-524.922Zm146.152 146.153-33.537-33.538 47.845-47.845q32.384-32.385 78.154-32.385 45.769 0 78.153 32.385l47.845 47.845-33.537 33.538-47.845-47.845q-18.231-18.231-44.616-18.231-26.386 0-44.617 18.231l-47.845 47.845ZM210.846-212Z"/></svg>