<svg xmlns="http://www.w3.org/2000/svg" height="24" viewBox="0 -960 960 960" width="24"><path d="M738.307-587.846 764.461-614l-74.462-73.082v-110.61h-35.384v124.923l83.692 84.923ZM171.076-709.23H417 171.076ZM240-440h-80H640 240Zm-59.229 339.999q-12.75 0-21.375-8.625t-8.625-21.375v-78.923q-21.923-15.23-36.346-43.038-14.424-27.808-14.424-55.731V-680q0-76.691 78.269-108.345 78.269-31.654 266.96-31.654-9.153 13.769-16.153 28.577-7 14.807-12.077 30.807-114.693 2-172.308 14.308Q187.076-734 171.076-709.23h235.386q-1.846 15-1.846 29.999 0 15 2.23 30H160v149.232h321.771q16.231 18.231 35.5 33.538Q536.54-451.154 559.463-440H160v120q0 33 23.5 56.5T240-240h320q33 0 56.5-23.5T640-320v-94.539q15 2.23 29.999 2.23 15 0 30-1.846v106.462q0 27.923-14.424 55.731-14.423 27.808-36.346 43.038v78.923q0 12.75-8.625 21.375t-21.375 8.625h-24.614q-12.75 0-21.375-8.625-8.624-8.625-8.624-21.375v-50H235.384v50q0 12.75-8.625 21.375-8.624 8.625-21.374 8.625h-24.614Zm491.378-400q-74.764 0-127.302-52.538-52.538-52.539-52.538-127.606 0-74.162 52.245-127.008 52.245-52.846 127.911-52.846 74.765 0 127.303 52.538Q852.306-754.922 852.306-680T799.61-552.539q-52.696 52.538-127.461 52.538ZM260.091-287.693q21.832 0 37.024-15.283 15.192-15.282 15.192-37.115 0-21.832-15.283-37.024-15.282-15.192-37.115-15.192-21.832 0-37.024 15.283-15.192 15.282-15.192 37.115 0 21.832 15.283 37.024 15.282 15.192 37.115 15.192Zm280 0q21.832 0 37.024-15.283 15.192-15.282 15.192-37.115 0-21.832-15.283-37.024-15.282-15.192-37.115-15.192-21.832 0-37.024 15.283-15.192 15.282-15.192 37.115 0 21.832 15.283 37.024 15.282 15.192 37.115 15.192Z"/></svg>