<svg xmlns="http://www.w3.org/2000/svg" height="24" viewBox="0 -960 960 960" width="24"><path d="M210.77-100.001q-29.192 0-49.98-20.902-20.789-20.901-20.789-50.252v-465.383q0-29.351 20.789-50.252 20.788-20.901 49.98-20.901h45.77v-176.922h447.305v176.922h45.385q29.538 0 50.153 20.901 20.616 20.901 20.616 50.252v465.383q0 29.351-20.616 50.252-20.615 20.902-50.153 20.902H210.77Zm105.768-607.69h327.308v-116.923H316.538v116.923ZM210.77-160h538.46q4.231 0 7.501-3.462 3.269-3.462 3.269-7.693v-465.383q0-4.231-3.269-7.693-3.27-3.462-7.501-3.462H210.77q-4.231 0-7.501 3.462-3.269 3.462-3.269 7.693v465.383q0 4.231 3.269 7.693 3.27 3.462 7.501 3.462Zm268.845-55.386q78.371 0 133.608-55.23 55.238-55.231 55.238-133.038 0-77.807-55.238-133.23-55.237-55.423-133.608-55.423-78.051 0-133.063 55.423-55.013 55.423-55.013 133.23 0 77.807 55.013 133.038 55.012 55.23 133.063 55.23Zm.179-46.922q-58.563 0-99.756-41.192-41.192-41.193-41.192-99.962 0-58.769 41.225-99.961 41.226-41.193 99.544-41.193 58.638 0 100.088 41.193 41.451 41.192 41.451 99.961T579.756-303.5q-41.399 41.192-99.962 41.192Zm44.667-72.154L549-359l-51.693-52.077v-88.154h-34.614v102.615l61.768 62.154ZM480-403.846Z"/></svg>