<svg width="62" height="62" viewBox="0 0 62 62" fill="none" xmlns="http://www.w3.org/2000/svg">
<path d="M31 0C13.7572 0 0 13.7572 0 31C0 48.2428 13.7572 62 31 62C48.2428 62 62 48.2428 62 31C62 13.7572 48.2428 0 31 0ZM28.6439 16.0809C29.2894 15.4355 29.8381 15.0078 30.879 15.0078C32.0409 14.9191 33.114 15.4677 33.5416 16.2907C34.0338 16.8717 34.3082 18.1627 34.1871 18.9211C34.1871 19.139 34.0338 20.5752 33.9693 20.9706L33.114 31.8472C33.114 32.9204 32.8962 33.9935 32.4685 34.8165C32.2507 35.462 31.6132 35.8896 30.7499 35.8896C30.1044 35.8896 29.4669 35.462 29.2491 34.8165C28.8214 33.7434 28.6036 32.8881 28.6036 31.8472L28.0226 21.1884C27.8048 19.26 27.8048 19.9055 27.8048 18.8324C27.8129 17.7996 28.0307 16.9362 28.6439 16.0809V16.0809ZM33.3561 46.1288C32.7106 46.7743 31.8553 46.9841 31.2098 46.9841C30.3545 46.9841 29.4911 46.7663 28.8537 46.1288C28.2082 45.4833 27.7806 44.6281 27.7806 43.5872C27.7806 42.7319 27.9984 41.8686 28.6359 41.2311C29.2814 40.5856 30.1366 40.158 30.9919 40.158C31.8472 40.158 32.7106 40.5856 33.348 41.2311C33.9935 41.8766 34.2033 42.7319 34.2033 43.5872C34.1871 44.6281 33.9693 45.4833 33.3561 46.1288Z" fill="#F38B2C"/>
</svg>
